<svg xmlns="http://www.w3.org/2000/svg" width="64" height="64" viewBox="0 0 64 64" fill="none">
  <defs>
    <linearGradient id="mnGrad" x1="8" y1="8" x2="56" y2="56" gradientUnits="userSpaceOnUse">
      <stop stop-color="#2F6BFF"/>
      <stop offset="1" stop-color="#7B4DFF"/>
    </linearGradient>
  </defs>
  <rect x="2" y="2" width="60" height="60" rx="16" fill="#EFF4FF"/>
  <path d="M16 47V18C16 15.7909 17.7909 14 20 14H23.5C24.726 14 25.8792 14.5653 26.6272 15.5301L32 22.5L37.3728 15.5301C38.1208 14.5653 39.274 14 40.5 14H44C46.2091 14 48 15.7909 48 18V47H42V25L34.9745 34.082C33.3763 36.1486 30.6237 36.1486 29.0255 34.082L22 25V47H16Z" fill="url(#mnGrad)"/>
  <path d="M46 26H40V20H36V26H30V30H36V36H40V30H46V26Z" fill="#14B8A6"/>
</svg>
